<?xml version="1.0" encoding="utf-8"?>
<!-- Generator: Adobe Illustrator 22.1.0, SVG Export Plug-In . SVG Version: 6.00 Build 0)  -->
<svg version="1.1" id="Layer_1" xmlns="http://www.w3.org/2000/svg" xmlns:xlink="http://www.w3.org/1999/xlink" x="0px" y="0px"
	 viewBox="0 0 512 512" style="enable-background:new 0 0 512 512;" xml:space="preserve">
<style type="text/css">
	.st0{fill:#7843CE;}
</style>
<g>
	<ellipse class="st0" cx="300.9" cy="85.5" rx="8" ry="8"/>
	<ellipse class="st0" cx="300.9" cy="105.5" rx="8" ry="8"/>
	<ellipse class="st0" cx="300.9" cy="125.6" rx="8" ry="8"/>
	<path class="st0" d="M327.9,92.8h44.6c4.1,0,7.4-3.3,7.4-7.4c0-4.1-3.3-7.4-7.4-7.4h-44.6c-4.1,0-7.4,3.3-7.4,7.4
		C320.5,89.5,323.8,92.8,327.9,92.8z"/>
	<path class="st0" d="M327.9,112.9h44.6c4.1,0,7.4-3.3,7.4-7.4s-3.3-7.4-7.4-7.4h-44.6c-4.1,0-7.4,3.3-7.4,7.4
		S323.8,112.9,327.9,112.9z"/>
	<path class="st0" d="M379.8,125.7c0-4.1-3.3-7.4-7.4-7.4h-44.6c-4.1,0-7.4,3.3-7.4,7.4c0,4.1,3.3,7.4,7.4,7.4h44.6
		C376.5,133,379.8,129.7,379.8,125.7z"/>
	<ellipse class="st0" cx="144.7" cy="85.5" rx="8" ry="8"/>
	<ellipse class="st0" cx="144.7" cy="105.5" rx="8" ry="8"/>
	<ellipse class="st0" cx="144.7" cy="125.6" rx="8" ry="8"/>
	<path class="st0" d="M216.2,78.1h-44.6c-4.1,0-7.4,3.3-7.4,7.4c0,4.1,3.3,7.4,7.4,7.4h44.6c4.1,0,7.4-3.3,7.4-7.4
		C223.6,81.4,220.3,78.1,216.2,78.1z"/>
	<path class="st0" d="M216.2,98.1h-44.6c-4.1,0-7.4,3.3-7.4,7.4s3.3,7.4,7.4,7.4h44.6c4.1,0,7.4-3.3,7.4-7.4S220.3,98.1,216.2,98.1z
		"/>
	<path class="st0" d="M216.2,118.3h-44.6c-4.1,0-7.4,3.3-7.4,7.4c0,4.1,3.3,7.4,7.4,7.4h44.6c4.1,0,7.4-3.3,7.4-7.4
		C223.6,121.6,220.3,118.3,216.2,118.3z"/>
	<path class="st0" d="M480.5,377.8c-12.3,0-22.8,8.3-26,19.7h-69.6v-50.4h21.4c21.4,0,38.8-17.4,38.8-38.8
		c0-21.4-17.4-38.8-38.8-38.8l0,0v-257l0,0c0-4.1-3.3-7.4-7.4-7.4H271.2c-4.1,0-7.4,3.3-7.4,7.4l0,0v179.7l0,0
		c-4.3-2.4-8.9-4.2-13.8-5.5l0,0V12.4l0,0c0-4.1-3.3-7.4-7.4-7.4H115c-4.1,0-7.4,3.3-7.4,7.4l0,0V162l0,0c0,4.1,3.3,7.4,7.4,7.4
		c4.1,0,7.4-3.3,7.4-7.4v-3.9h113v26.5c-0.2,0-0.3,0-0.5,0c-29.8,0-54.6,21.6-59.6,49.9c-5.6-2.5-11.8-3.8-18-3.8
		c-14.1,0-26.7,6.6-34.9,16.9V194c0-4.1-3.3-7.4-7.4-7.4c-4.1,0-7.4,3.3-7.4,7.4v75.5c-0.6,0-1.3-0.1-1.9-0.1
		c-21.4,0-38.8,17.4-38.8,38.8c0,21.4,17.4,38.8,38.8,38.8h21.4v50.4H57.5c-3.2-11.3-13.6-19.7-26-19.7c-14.9,0-27,12.1-27,27.1
		c0,14.9,12.1,27.1,27,27.1c12.3,0,22.8-8.3,26-19.7h77c4.1,0,7.4-3.3,7.4-7.4v-57.8h31.6v4.3c0,4.1,3.3,7.4,7.4,7.4
		s7.4-3.3,7.4-7.4v-4.3h60.4V417c-11.3,3.2-19.6,13.7-19.6,26c0,14.9,12.1,27.1,27,27.1s27-12.1,27-27.1c0-12.4-8.3-22.8-19.6-26
		v-69.9h60.4v108.8c-11.3,3.2-19.6,13.7-19.6,26c0,14.9,12.1,27.1,27,27.1s27-12.1,27-27.1c0-12.4-8.3-22.8-19.6-26V347.1h31.6v57.8
		c0,4.1,3.3,7.4,7.4,7.4h77c3.2,11.3,13.6,19.7,26,19.7c14.9,0,27-12.1,27-27.1C507.5,390,495.4,377.8,480.5,377.8z M235.4,19.8
		v27.1h-113V19.8H235.4z M122.4,143.4V61.7h113v81.7H122.4z M31.5,417.2c-6.8,0-12.3-5.5-12.3-12.3c0-6.8,5.5-12.3,12.3-12.3
		s12.3,5.5,12.3,12.3C43.8,411.7,38.3,417.2,31.5,417.2z M268.3,443c0,6.8-5.5,12.3-12.3,12.3c-6.8,0-12.3-5.5-12.3-12.3
		s5.5-12.3,12.3-12.3C262.8,430.7,268.3,436.3,268.3,443z M343.4,481.9c0,6.8-5.5,12.3-12.3,12.3s-12.3-5.5-12.3-12.3
		s5.5-12.3,12.3-12.3S343.4,475.1,343.4,481.9z M314.6,202.3c-10.7,0-20.7,3.9-28.4,10.7c-2.2-3.5-4.8-6.7-7.6-9.7v-45.3h71.5
		c4.1,0,7.4-3.3,7.4-7.4c0-4.1-3.3-7.4-7.4-7.4h-71.5V61.7h113v81.7h-9.7c-4.1,0-7.4,3.3-7.4,7.4c0,4.1,3.3,7.4,7.4,7.4h9.7v111.3
		c-4.9-13-17.4-22.3-32.1-22.3c-0.7,0-1.4,0-2.1,0.1c0-0.7,0-1.3,0-2C357.4,221.6,338.2,202.3,314.6,202.3z M391.6,19.8v27.1h-113
		V19.8H391.6z M81.6,308.2c0-13.3,10.8-24.1,24.1-24.1c4,0,7.9,1,11.3,2.8c2.5,1.3,5.4,1.1,7.7-0.5c2.3-1.6,3.5-4.4,3.1-7.1
		c-0.2-1.4-0.3-2.8-0.3-4.3c0-16.4,13.3-29.7,29.7-29.7c7.2,0,14.2,2.6,19.6,7.4c0,0,0,0,0,0c6.4,5.6,10.1,13.8,10.1,22.3
		c0,7.2-2.6,14.2-7.4,19.6c-2.7,3.1-2.4,7.7,0.6,10.4c1.4,1.2,3.1,1.9,4.9,1.9c2,0,4.1-0.8,5.5-2.5c7.2-8.1,11.1-18.6,11.1-29.4
		c0-11.6-4.6-22.7-12.6-31c0.5-24.8,20.9-44.7,45.8-44.7c17.8,0,34,10.5,41.5,26.4c-3,6-4.7,12.6-4.7,19.4
		c0,14.7,7.4,28.1,19.7,36.1c1.2,0.8,2.6,1.2,4,1.2c2.4,0,4.8-1.2,6.2-3.4c2.2-3.4,1.2-8-2.2-10.2c-8.1-5.2-12.9-14-12.9-23.6
		c0-5.3,1.5-10.5,4.3-15c0,0,0,0,0,0c5.2-8.2,14.1-13.1,23.8-13.1c15.5,0,28.1,12.6,28.1,28.1c0,3.2-0.5,6.4-1.6,9.4
		c-1,2.8-0.2,6,2,8c2.2,2,5.4,2.5,8.1,1.2c2.6-1.2,5.4-1.9,8.3-1.9c10.8,0,19.5,8.7,19.5,19.5c0,0.7,0,1.3-0.1,1.9
		c-0.3,3,1.2,5.8,3.9,7.3c2.6,1.4,5.9,1.1,8.2-0.8c4.3-3.6,9.7-5.5,15.3-5.5c13.3,0,24.1,10.8,24.1,24.1s-10.8,24.1-24.1,24.1H105.7
		C92.4,332.3,81.6,321.5,81.6,308.2z M480.5,417.2c-6.8,0-12.3-5.5-12.3-12.3c0-6.8,5.5-12.3,12.3-12.3s12.3,5.5,12.3,12.3
		C492.8,411.7,487.3,417.2,480.5,417.2z"/>
	<path class="st0" d="M188.2,458.9v-73.1c0-4.1-3.3-7.4-7.4-7.4s-7.4,3.3-7.4,7.4v73.1c-11.3,3.2-19.6,13.7-19.6,26
		c0,14.9,12.1,27.1,27,27.1s27-12.1,27-27.1C207.9,472.6,199.5,462.1,188.2,458.9z M180.8,497.2c-6.8,0-12.3-5.5-12.3-12.3
		s5.5-12.3,12.3-12.3s12.3,5.5,12.3,12.3S187.6,497.2,180.8,497.2z"/>
</g>
</svg>
